<?xml version="1.0" encoding="utf-8"?>
<!-- Svg Vector Icons : http://www.onlinewebfonts.com/icon -->
<!DOCTYPE svg PUBLIC "-//W3C//DTD SVG 1.1//EN" "http://www.w3.org/Graphics/SVG/1.1/DTD/svg11.dtd">
<svg version="1.1" xmlns="http://www.w3.org/2000/svg" xmlns:xlink="http://www.w3.org/1999/xlink" x="0px" y="0px" viewBox="0 0 1000 1000" enable-background="new 0 0 1000 1000" xml:space="preserve">
<metadata> Svg Vector Icons : http://www.onlinewebfonts.com/icon </metadata>
<g><g transform="translate(0.000000,511.000000) scale(0.100000,-0.100000)"><path d="M9582.6,4984.4c-22.5-14.3-404.4-473.8-843.5-1025.3c-441.1-549.4-804.7-1004.8-808.8-1008.9c-6.1-6.1-181.8,161.3-392.1,371.7c-341.1,339-392.1,381.9-451.4,381.9c-138.9,0-224.6-85.8-226.7-224.7v-89.9l465.7-467.7c255.3-257.3,488.1-480,518.8-496.3c73.5-38.8,136.8-36.8,204.2,8.2c57.2,34.7,1801.3,2203.7,1838.1,2285.4c32.7,69.4,2,181.8-67.4,238.9C9752.1,5015,9656.1,5025.2,9582.6,4984.4z"/><path d="M206.2,2580.5c-36.8-22.5-75.6-65.4-85.8-94c-12.3-28.6-20.4-216.5-20.4-418.7c0-416.6,14.3-469.7,136.8-520.8c87.8-38.8,189.9-10.2,251.2,67.4c36.8,47,40.8,83.7,40.8,304.3v253.3H1015h488.1l906.8-2332.4c674-1738,919.1-2348.7,961.9-2391.6l53.1-55.2h2483.5h2481.5l51.1,47c40.8,34.7,192,412.6,645.4,1601.2C9462.1,31.7,9678.6,626,9678.6,673c0,91.9-83.7,179.7-183.8,198.1c-394.2,67.4-6366,872.1-6404.8,863.9c-28.6-8.2-75.6-38.8-102.1-67.4c-89.9-98-49-304.3,69.4-341.1c20.4-6.1,1399-200.2,3065.6-430.9c1666.5-228.7,3032.9-420.7,3034.9-422.8c4.1-4.1-220.6-600.4-498.3-1327.5L8157-2178.1H5910.5H3661.8L2757.1,156.3c-700.5,1805.4-919.1,2346.7-966,2393.6l-57.2,61.3l-731.2,6.1C302.2,2621.4,271.6,2621.4,206.2,2580.5z"/><path d="M3919.2,409.5c-67.4-32.7-130.7-163.4-112.3-232.8c6.1-28.6,38.8-77.6,71.5-110.3l57.2-59.2h1607.3h1607.3l69.4,69.4c96,96,96,194,0,290l-69.4,69.4H5561.2C4333.8,436.1,3958,430,3919.2,409.5z"/><path d="M3882.4-493.2c-77.6-65.4-98-147.1-57.2-241c59.2-145-69.4-136.8,2156.7-136.8s2097.5-8.2,2156.7,136.8c40.8,93.9,20.4,175.6-57.2,241l-61.3,51.1H5981.9H3943.7L3882.4-493.2z"/><path d="M3927.3-1328.5c-77.6-34.7-138.9-153.2-120.5-236.9c18.4-87.8,102.1-159.3,200.1-173.6c47-6.1,970.1-10.2,2050.5-6.1l1964.7,6.1l61.3,59.2c79.6,75.6,96,153.2,53.1,245.1c-67.4,143,51.1,134.8-2158.8,134.8C4362.4-1302,3978.4-1306,3927.3-1328.5z"/><path d="M4425.7-2882.7c-488.1-124.6-808.8-598.4-731.2-1082.4c79.7-500.4,531-859.8,1031.4-821c394.2,30.6,733.2,306.3,849.6,692.4c55.1,181.8,47,437.1-22.5,614.7c-96,255.3-326.8,477.9-586.2,569.8C4813.7-2856.2,4576.8-2843.9,4425.7-2882.7z M4868.9-3340.2c224.6-102.1,359.4-377.8,298.2-608.6c-36.8-136.8-143-271.6-265.5-341.1c-94-51.1-134.8-61.3-245.1-61.3c-155.2,2.1-249.2,36.8-359.5,132.8c-277.8,245.1-212.4,712.8,122.5,868C4548.2-3289.1,4748.4-3285.1,4868.9-3340.2z"/><path d="M6948-2880.7c-285.9-69.4-524.9-265.5-653.6-535.1c-75.6-159.3-77.6-165.4-77.6-406.4s2-247.1,75.6-404.4c243-508.6,823.1-706.7,1325.5-451.4c494.2,249.2,663.8,910.9,357.4,1384.7C7756.7-2958.3,7334-2786.7,6948-2880.7z M7411.6-3358.6c349.2-171.6,384-651.5,65.4-894.5c-273.7-210.4-696.4-77.6-810.8,255.3c-104.2,306.3,85.8,635.2,400.3,694.4C7191-3281,7280.9-3295.3,7411.6-3358.6z"/></g></g>
</svg>