<svg id="svg" xmlns="http://www.w3.org/2000/svg" xmlns:xlink="http://www.w3.org/1999/xlink" width="400" height="400" viewBox="0, 0, 400,400"><g id="svgg"><path id="path0" d="M182.778 48.970 C 66.093 62.802,7.856 199.322,79.011 292.222 C 157.293 394.427,316.906 361.317,348.482 236.323 C 373.981 135.384,286.661 36.657,182.778 48.970 M218.531 58.962 C 335.864 74.948,384.491 217.323,301.211 301.038 C 226.410 376.230,98.556 346.000,65.008 245.191 C 37.805 163.449,91.478 73.550,175.556 60.029 C 180.139 59.292,184.639 58.542,185.556 58.362 C 189.849 57.521,210.745 57.901,218.531 58.962 M197.500 63.422 C 195.449 64.617,194.481 95.603,196.406 98.414 C 201.878 106.406,205.556 99.680,205.556 81.683 C 205.556 63.003,204.056 59.604,197.500 63.422 M102.857 102.857 C 100.028 105.687,100.762 107.577,107.391 114.527 C 113.852 121.300,117.330 122.662,119.988 119.459 C 124.504 114.018,107.843 97.871,102.857 102.857 M286.584 107.391 C 278.625 114.983,277.801 121.111,284.739 121.111 C 291.293 121.111,301.628 104.878,296.740 102.261 C 293.638 100.601,293.777 100.531,286.584 107.391 M198.889 111.921 C 195.732 113.123,195.590 115.147,195.573 159.128 C 195.556 201.627,195.635 203.298,197.705 204.405 C 200.614 205.963,261.608 205.963,264.517 204.405 C 266.920 203.120,267.375 198.930,265.333 196.889 C 264.364 195.919,256.025 195.556,234.778 195.556 L 205.556 195.556 205.556 155.803 C 205.556 111.406,205.265 109.494,198.889 111.921 M63.556 196.889 C 57.636 202.809,63.458 205.556,81.927 205.556 C 98.095 205.556,100.000 205.028,100.000 200.556 C 100.000 196.050,98.133 195.556,81.111 195.556 C 69.975 195.556,64.471 195.974,63.556 196.889 M301.746 197.302 C 295.827 203.221,300.838 205.556,319.461 205.556 C 337.458 205.556,344.183 201.878,336.192 196.406 C 333.637 194.656,303.611 195.437,301.746 197.302 M107.465 286.421 C 100.429 293.531,99.773 295.739,103.894 298.439 C 107.161 300.579,107.653 300.305,115.833 291.776 C 121.217 286.163,122.147 283.702,119.778 281.333 C 117.109 278.664,113.780 280.039,107.465 286.421 M281.389 280.736 C 277.227 282.415,288.628 300.000,293.879 300.000 C 300.918 300.000,300.400 292.863,292.844 285.717 C 287.202 280.380,284.828 279.348,281.389 280.736 M197.302 301.746 C 195.870 303.178,195.556 306.484,195.556 320.103 L 195.556 336.714 198.464 338.039 C 204.074 340.595,205.556 336.684,205.556 319.321 C 205.556 301.826,202.892 296.155,197.302 301.746 " stroke="none" fill="#000000" fill-rule="evenodd"></path></g></svg>